<svg version="1.1"  width="2000" height="323" viewBox="0 0 2000 323"><g transform="matrix(1,0,0,1,0.9724439722658644,-0.5250273584905756)"><svg viewBox="0 0 328 53" data-background-color="#f9f9f9" preserveAspectRatio="xMidYMid meet" height="323" width="2000" ><g id="tight-bounds" transform="matrix(1,0,0,1,-0.1594808114516013,0.0861500000000035)"><svg viewBox="0 0 328.3189616229032 52.82770000000001" height="52.82770000000001" width="328.3189616229032"><g><svg viewBox="0 0 328.3189616229032 52.82770000000001" height="52.82770000000001" width="328.3189616229032"><g><svg viewBox="0 0 328.3189616229032 52.82770000000001" height="52.82770000000001" width="328.3189616229032"><g><svg viewBox="0 0 328.3189616229032 52.82770000000001" height="52.82770000000001" width="328.3189616229032"><g id="textblocktransform"><svg viewBox="0 0 328.3189616229032 52.82770000000001" height="52.82770000000001" width="328.3189616229032" id="textblock"><g><svg viewBox="0 0 328.3189616229032 52.82770000000001" height="52.82770000000001" width="328.3189616229032"><g><svg><g></g><g></g></svg></g><g><svg><g></g><g><svg></svg></g></svg></g><g id="text-0"><svg viewBox="0 0 328.3189616229032 52.82770000000001" height="52.82770000000001" width="328.3189616229032"><g><svg version="1.1" x="0" y="0" viewBox="0 3.367796960100228 100 93.26420303989977" enable-background="new 0 0 100 100" xml:space="preserve" height="52.82770000000001" width="56.643061622903225" class="icon-cg-0" data-fill-palette-color="accent" id="cg-0"><g fill="#e98074" data-fill-palette-color="accent"><path d="M35.125 72.973c0 0.942 0.761 1.705 1.703 1.705h15.826l-16.359 5.46c-0.899 0.292-1.381 1.265-1.089 2.153 0.241 0.722 0.913 1.173 1.622 1.173 0.178 0 0.365-0.032 0.544-0.085l26.336-8.785c0.795-0.262 1.288-1.066 1.15-1.894-0.136-0.825-0.847-1.433-1.684-1.433H36.827C35.886 71.268 35.125 72.029 35.125 72.973z" fill="#e98074" data-fill-palette-color="accent"></path><path d="M61.959 89.331c-0.029 0.031-3.981 3.89-11.953 3.89-4.3 0-7.426-1.107-9.394-2.144l23.094-7.698c0.9-0.303 1.38-1.275 1.089-2.164-0.306-0.899-1.267-1.382-2.167-1.077l-26.334 8.774c-0.566 0.188-0.994 0.659-1.129 1.233-0.137 0.577 0.04 1.183 0.459 1.6 0.199 0.199 4.998 4.887 14.381 4.887 9.37 0 14.172-4.688 14.372-4.887 0.669-0.668 0.669-1.756 0-2.414C63.707 88.662 62.629 88.662 61.959 89.331z" fill="#e98074" data-fill-palette-color="accent"></path><path d="M50.006 5.418c-15.471 0-28.051 12.581-28.051 28.04 0 7.771 4.182 13.984 7.865 19.456 2.844 4.213 5.305 7.854 5.305 11.284 0 0.941 0.761 1.704 1.703 1.704s1.716-0.763 1.716-1.704c0-4.476-2.868-8.713-5.89-13.199-3.587-5.313-7.289-10.804-7.289-17.541 0-13.575 11.055-24.63 24.642-24.63 13.577 0 24.63 11.056 24.63 24.63 0 6.737-3.713 12.227-7.289 17.541-3.023 4.486-5.878 8.724-5.878 13.199 0 0.941 0.762 1.704 1.704 1.704 0.941 0 1.706-0.763 1.706-1.704 0-3.43 2.457-7.071 5.301-11.284 3.683-5.472 7.866-11.684 7.866-19.456C78.047 17.999 65.463 5.418 50.006 5.418z" fill="#e98074" data-fill-palette-color="accent"></path><path d="M51.71 15.897c0-0.941-0.764-1.705-1.704-1.705-10.627 0-19.276 8.65-19.276 19.265 0 0.953 0.764 1.716 1.704 1.716 0.952 0 1.716-0.763 1.716-1.716 0-8.732 7.112-15.845 15.856-15.845C50.946 17.612 51.71 16.838 51.71 15.897z" fill="#e98074" data-fill-palette-color="accent"></path><path d="M20.584 14.203c0.304 0.219 0.66 0.324 1.005 0.324 0.533 0 1.046-0.24 1.38-0.701 0.554-0.763 0.386-1.83-0.376-2.385l-10.658-7.75c-0.764-0.554-1.83-0.377-2.385 0.387C8.996 4.832 9.164 5.897 9.927 6.463L20.584 14.203z" fill="#e98074" data-fill-palette-color="accent"></path><path d="M78.412 14.527c0.347 0 0.702-0.105 1.007-0.324l10.656-7.74c0.764-0.566 0.932-1.631 0.375-2.385-0.554-0.764-1.621-0.941-2.385-0.387l-10.658 7.75c-0.762 0.555-0.929 1.622-0.375 2.385C77.368 14.287 77.88 14.527 78.412 14.527z" fill="#e98074" data-fill-palette-color="accent"></path><path d="M98.297 31.753h-13.17c-0.951 0-1.714 0.763-1.714 1.704 0 0.953 0.763 1.716 1.714 1.716h13.17c0.939 0 1.703-0.763 1.703-1.716C100 32.517 99.236 31.753 98.297 31.753z" fill="#e98074" data-fill-palette-color="accent"></path><path d="M16.59 33.458c0-0.941-0.764-1.704-1.706-1.704H1.705C0.765 31.753 0 32.517 0 33.458c0 0.953 0.765 1.716 1.705 1.716h13.179C15.826 35.173 16.59 34.41 16.59 33.458z" fill="#e98074" data-fill-palette-color="accent"></path><path d="M79.419 52.724c-0.767-0.554-1.834-0.388-2.387 0.377-0.554 0.764-0.387 1.83 0.375 2.384l10.658 7.74c0.305 0.221 0.661 0.335 1.005 0.335 0.524 0 1.047-0.251 1.38-0.711 0.557-0.764 0.389-1.831-0.375-2.385L79.419 52.724z" fill="#e98074" data-fill-palette-color="accent"></path><path d="M20.584 52.724l-10.657 7.74c-0.764 0.554-0.931 1.621-0.377 2.385 0.337 0.46 0.857 0.711 1.38 0.711 0.355 0 0.701-0.114 1.005-0.335l10.658-7.74c0.763-0.554 0.93-1.62 0.376-2.384C22.414 52.336 21.347 52.17 20.584 52.724z" fill="#e98074" data-fill-palette-color="accent"></path></g></svg></g><g transform="matrix(1,0,0,1,69.11536162290322,0)"><svg width="259.2036" viewBox="3.15 -32.05 160.19 32.65" height="52.82770000000001" data-palette-color="#7c0b2b"><path d="M3.15 0.4L3.5-1.9Q5.7-2.3 6.4-3.08 7.1-3.85 7.1-6L7.1-6 7.15-27Q7.15-28.6 6.78-29.15 6.4-29.7 5.3-29.7L5.3-29.7Q4.8-29.7 4.3-29.65 3.8-29.6 3.6-29.6L3.6-29.6 3.5-29.8 3.85-32Q4.45-31.95 6.1-31.9 7.75-31.85 9.4-31.85L9.4-31.85Q10.95-31.85 12.93-31.93 14.9-32 15.7-32.05L15.7-32.05Q20.9-32.05 23.65-29.75 26.4-27.45 26.4-23.15L26.4-23.15Q26.4-20.35 24.78-17.82 23.15-15.3 20.5-13.75 17.85-12.2 14.95-12.2L14.95-12.2 10.75-12.2 10.65-7.3Q10.65-4.9 10.8-3.88 10.95-2.85 11.38-2.53 11.8-2.2 12.85-2.2L12.85-2.2Q13.7-2.2 14.48-2.25 15.25-2.3 15.55-2.35L15.55-2.35 15.65-2.15 15.2 0.15Q14.7 0.1 13.38 0.05 12.05 0 10.6 0L10.6 0Q8.6 0 5.93 0.15 3.25 0.3 3.15 0.4L3.15 0.4ZM16.15-14.4Q19.15-14.9 20.68-16.85 22.2-18.8 22.2-22.2L22.2-22.2Q22.2-26.05 19.93-27.83 17.65-29.6 12.8-29.6L12.8-29.6Q11.9-29.6 11.7-29.5 11.5-29.4 11.45-28.9L11.45-28.9Q11-22.55 10.85-15.15L10.85-15.15 16.15-14.4ZM49.1 0.6Q48 0.6 46.85-0.38 45.7-1.35 44.75-3.05L44.75-3.05 40.55-10.4 37.3-10.4 37.2-5.05Q37.2-3.6 37.4-2.98 37.6-2.35 38.17-2.15 38.75-1.95 40.15-1.9L40.15-1.9 40.25-1.75 39.85 0.15Q39.25 0.1 37.67 0.08 36.1 0.05 34.5 0.05L34.5 0.05Q32.95 0.05 31.8 0.1 30.65 0.15 30.25 0.2L30.25 0.2 30.6-1.85Q32.45-2.1 33.05-2.7 33.65-3.3 33.65-4.95L33.65-4.95 33.7-20.9Q33.7-22.1 33.4-22.53 33.1-22.95 32.25-22.95L32.25-22.95 30.85-22.9 30.7-23.1 31-25Q31.5-25 32.9-24.95 34.3-24.9 35.7-24.9L35.7-24.9Q37.15-24.9 38.8-24.98 40.45-25.05 41.05-25.05L41.05-25.05Q45.1-25.05 47.4-23.38 49.7-21.7 49.7-18.75L49.7-18.75Q49.7-16.45 48.15-14.5 46.6-12.55 43.8-11.3L43.8-11.3 48.05-4.9Q49.25-3.1 50.35-2.35 51.45-1.6 53-1.6L53-1.6 53.2-1.35 52.95 0.2 49.1 0.6ZM41.45-12.6Q42.4-13 43.12-13.38 43.85-13.75 44.75-14.95 45.65-16.15 45.65-18.05L45.65-18.05Q45.65-22.9 38.5-22.9L38.5-22.9Q38.1-22.9 37.95-22.73 37.8-22.55 37.8-22L37.8-22Q37.4-15.9 37.4-13L37.4-13 41.45-12.6ZM56.65 0.45L56.9-1.6Q58.8-1.95 59.45-2.63 60.1-3.3 60.1-4.95L60.1-4.95 60.15-20.85Q60.15-22.1 59.85-22.53 59.55-22.95 58.65-22.95L58.65-22.95 57-22.9 56.9-23.1 57.15-25Q57.45-25 58.77-24.95 60.1-24.9 62.25-24.9L62.25-24.9Q63.4-24.9 65.07-25.05 66.75-25.2 67.25-25.25L67.25-25.25 67.05-23.2Q65.4-23 64.84-22.58 64.3-22.15 64.2-21L64.2-21Q64-17 63.82-12.15 63.65-7.3 63.65-4.65L63.65-4.65Q63.65-3.05 64-2.5 64.34-1.95 65.4-1.95L65.4-1.95Q66.09-1.95 66.67-2 67.25-2.05 67.45-2.1L67.45-2.1 67.55-1.9 67.2 0.1Q66.59 0.1 64.95 0.05 63.3 0 61.65 0L61.65 0Q60.3 0 58.72 0.18 57.15 0.35 56.65 0.45L56.65 0.45ZM83.49 0.45Q80.09 0.45 77.47-1.05 74.84-2.55 73.42-5.3 71.99-8.05 71.99-11.65L71.99-11.65Q71.99-15.55 73.77-18.68 75.54-21.8 78.62-23.58 81.69-25.35 85.49-25.35L85.49-25.35Q88.94-25.35 91.59-23.85 94.24-22.35 95.69-19.63 97.14-16.9 97.14-13.3L97.14-13.3Q97.14-9.4 95.37-6.28 93.59-3.15 90.47-1.35 87.34 0.45 83.49 0.45L83.49 0.45ZM84.69-1.95Q88.34-1.95 90.59-4.58 92.84-7.2 92.84-11.55L92.84-11.55Q92.84-14.85 91.77-17.35 90.69-19.85 88.72-21.2 86.74-22.55 84.14-22.55L84.14-22.55Q80.59-22.55 78.42-19.95 76.24-17.35 76.24-13L76.24-13Q76.24-9.7 77.29-7.2 78.34-4.7 80.27-3.33 82.19-1.95 84.69-1.95L84.69-1.95ZM120.74 0.6Q119.64 0.6 118.49-0.38 117.34-1.35 116.39-3.05L116.39-3.05 112.19-10.4 108.94-10.4 108.84-5.05Q108.84-3.6 109.04-2.98 109.24-2.35 109.82-2.15 110.39-1.95 111.79-1.9L111.79-1.9 111.89-1.75 111.49 0.15Q110.89 0.1 109.32 0.08 107.74 0.05 106.14 0.05L106.14 0.05Q104.59 0.05 103.44 0.1 102.29 0.15 101.89 0.2L101.89 0.2 102.24-1.85Q104.09-2.1 104.69-2.7 105.29-3.3 105.29-4.95L105.29-4.95 105.34-20.9Q105.34-22.1 105.04-22.53 104.74-22.95 103.89-22.95L103.89-22.95 102.49-22.9 102.34-23.1 102.64-25Q103.14-25 104.54-24.95 105.94-24.9 107.34-24.9L107.34-24.9Q108.79-24.9 110.44-24.98 112.09-25.05 112.69-25.05L112.69-25.05Q116.74-25.05 119.04-23.38 121.34-21.7 121.34-18.75L121.34-18.75Q121.34-16.45 119.79-14.5 118.24-12.55 115.44-11.3L115.44-11.3 119.69-4.9Q120.89-3.1 121.99-2.35 123.09-1.6 124.64-1.6L124.64-1.6 124.84-1.35 124.59 0.2 120.74 0.6ZM113.09-12.6Q114.04-13 114.77-13.38 115.49-13.75 116.39-14.95 117.29-16.15 117.29-18.05L117.29-18.05Q117.29-22.9 110.14-22.9L110.14-22.9Q109.74-22.9 109.59-22.73 109.44-22.55 109.44-22L109.44-22Q109.04-15.9 109.04-13L109.04-13 113.09-12.6ZM128.29 0.45L128.54-1.6Q130.44-1.95 131.09-2.63 131.74-3.3 131.74-4.95L131.74-4.95 131.79-20.85Q131.79-22.1 131.49-22.53 131.19-22.95 130.29-22.95L130.29-22.95 128.64-22.9 128.54-23.1 128.79-25Q129.09-25 130.41-24.95 131.74-24.9 133.89-24.9L133.89-24.9Q135.04-24.9 136.71-25.05 138.39-25.2 138.89-25.25L138.89-25.25 138.69-23.2Q137.04-23 136.49-22.58 135.94-22.15 135.84-21L135.84-21Q135.64-17 135.46-12.15 135.29-7.3 135.29-4.65L135.29-4.65Q135.29-3.05 135.64-2.5 135.99-1.95 137.04-1.95L137.04-1.95Q137.74-1.95 138.31-2 138.89-2.05 139.09-2.1L139.09-2.1 139.19-1.9 138.84 0.1Q138.24 0.1 136.59 0.05 134.94 0 133.29 0L133.29 0Q131.94 0 130.36 0.18 128.79 0.35 128.29 0.45L128.29 0.45ZM146.09 0.2L146.44-1.8Q148.44-1.95 149.26-2.3 150.09-2.65 150.31-3.48 150.53-4.3 150.53-6.35L150.53-6.35 150.53-22.9Q147.39-22.8 146.28-22.55 145.19-22.3 144.66-21.38 144.14-20.45 143.78-17.9L143.78-17.9 141.44-17.75Q141.53-18.4 141.76-20.63 141.99-22.85 142.03-25L142.03-25 142.44-25.35 145.99-24.95 158.74-24.95 162.39-25.35 162.79-25Q162.84-22.8 163.04-20.65 163.24-18.5 163.34-17.9L163.34-17.9 161.04-17.75Q160.64-20.35 160.11-21.33 159.59-22.3 158.56-22.55 157.53-22.8 154.64-22.9L154.64-22.9Q154.39-20.5 154.19-14.93 153.99-9.35 153.99-4.65L153.99-4.65Q153.99-3.2 154.53-2.6 155.09-2 156.34-2L156.34-2Q157.24-2 157.81-2.05 158.39-2.1 158.53-2.1L158.53-2.1 158.69-1.95 158.34 0.15Q157.64 0.15 155.74 0.08 153.84 0 152.03 0L152.03 0Q150.24 0 148.49 0.08 146.74 0.15 146.09 0.2L146.09 0.2Z" opacity="1" transform="matrix(1,0,0,1,0,0)" fill="#7c0b2b" class="wordmark-text-0" data-fill-palette-color="primary"></path></svg></g></svg></g></svg></g></svg></g></svg></g></svg></g></svg></g><defs></defs></svg><rect width="328.3189616229032" height="52.82770000000001" fill="none" stroke="none" visibility="hidden"></rect></g></svg></g></svg>